<?xml version="1.0" standalone="no"?>
<!DOCTYPE svg PUBLIC "-//W3C//DTD SVG 20010904//EN"
 "http://www.w3.org/TR/2001/REC-SVG-20010904/DTD/svg10.dtd">
<svg version="1.0" xmlns="http://www.w3.org/2000/svg"
 width="421.000000pt" height="421.000000pt" viewBox="0 0 421.000000 421.000000"
 preserveAspectRatio="xMidYMid meet">
<metadata>
Created by potrace 1.11, written by Peter Selinger 2001-2013
</metadata>
<g transform="translate(0.000000,421.000000) scale(0.100000,-0.100000)"
fill="#000000" stroke="none">
<path d="M1943 4125 c-81 -47 -150 -82 -160 -79 -20 4 -47 -13 -54 -35 -3 -7
-326 -202 -719 -431 l-715 -417 -3 -87 c-2 -58 -6 -85 -13 -80 -8 4 -9 -12 -4
-52 4 -33 9 -473 12 -979 l4 -920 112 -64 c343 -197 932 -543 937 -551 6 -8
51 -33 65 -36 6 -1 161 -90 345 -198 190 -112 345 -196 359 -196 14 0 102 45
196 100 95 55 176 100 179 100 4 0 26 13 49 29 50 35 592 351 602 351 4 0 -8
-26 -26 -57 -18 -33 -25 -52 -15 -44 9 8 28 38 42 68 22 47 80 103 106 103 5
0 415 237 633 367 l50 29 5 440 c3 241 3 718 0 1058 l-5 619 -386 225 c-232
135 -385 231 -382 238 4 10 -41 30 -59 26 -10 -2 -772 443 -815 476 -18 13
-33 22 -33 19 0 -4 -27 9 -59 28 -33 19 -70 35 -83 35 -13 -1 -87 -38 -165
-85z"/>
</g>
</svg>
